<svg width="106" height="46" viewBox="0 0 106 46" fill="none" xmlns="http://www.w3.org/2000/svg">
<path d="M96 24V14H94V24H96ZM84 46V4H106V24L104 26V28L106 30V46H96V32H94V46H84Z" fill="#666666"/>
<path d="M60 46V4H70V20H72V4H82V22L80 24V26L82 28V46H72V30H70V46H60Z" fill="#666666"/>
<path d="M36 24V14H34V24H36ZM24 46V4H46V24L44 26V28L46 30V46H36V32H34V46H24Z" fill="#666666"/>
<path d="M12 36V28H10V36H12ZM12 18V14H10V18H12ZM0 46V4H22V20L20 22V24L22 26V46H0Z" fill="#666666"/>
<path d="M96 20V10H94V20H96ZM84 42V0H106V20L104 22V24L106 26V42H96V28H94V42H84Z" fill="white"/>
<path d="M60 42V0H70V16H72V0H82V18L80 20V22L82 24V42H72V26H70V42H60Z" fill="white"/>
<path d="M36 20V10H34V20H36ZM24 42V0H46V20L44 22V24L46 26V42H36V28H34V42H24Z" fill="white"/>
<path d="M12 32V24H10V32H12ZM12 14V10H10V14H12ZM0 42V0H22V16L20 18V20L22 22V42H0Z" fill="white"/>
</svg>
